<svg width="142" height="12" xmlns="http://www.w3.org/2000/svg">
    <symbol id="logo" viewBox="0 0 142 12">
        <path
            d="M13.2301 0.129905V11.8701H11.2304V4.28687C11.2304 3.98376 11.2473 3.65629 11.281 3.30447L7.5938 9.97023C7.41943 10.2896 7.15224 10.4493 6.79224 10.4493H6.47161C6.11161 10.4493 5.84442 10.2896 5.67004 9.97023L1.94064 3.28011C1.95751 3.45873 1.97158 3.63464 1.98283 3.80785C1.99408 3.98106 1.9997 4.14073 1.9997 4.28687V11.8701H0V0.129905H1.71282C1.81408 0.129905 1.90126 0.132611 1.97439 0.138024C2.04751 0.143436 2.1122 0.156968 2.16845 0.178619C2.23033 0.20027 2.28377 0.235453 2.32877 0.284168C2.37939 0.332882 2.4272 0.397834 2.47221 0.479025L6.12567 6.99865C6.22129 7.17185 6.30848 7.35047 6.38723 7.53451C6.47161 7.71854 6.55317 7.90798 6.63192 8.10284C6.71067 7.90257 6.79224 7.71042 6.87661 7.52639C6.96099 7.33694 7.05099 7.15562 7.14661 6.98241L10.7495 0.479025C10.7945 0.397834 10.8423 0.332882 10.8929 0.284168C10.9435 0.235453 10.997 0.20027 11.0532 0.178619C11.1151 0.156968 11.1826 0.143436 11.2557 0.138024C11.3288 0.132611 11.416 0.129905 11.5173 0.129905H13.2301Z"
            fill="black" />
        <path
            d="M30.8361 7.43708L29.3511 3.5318C29.278 3.35859 29.202 3.15291 29.1233 2.91475C29.0445 2.67659 28.9658 2.41949 28.887 2.14344C28.8139 2.41949 28.738 2.6793 28.6592 2.92287C28.5805 3.16103 28.5045 3.36942 28.4314 3.54804L26.9548 7.43708H30.8361ZM34.844 11.8701H33.0889C32.8921 11.8701 32.7318 11.8241 32.608 11.7321C32.4843 11.6346 32.3914 11.5156 32.3296 11.3748L31.4183 8.9797H26.3642L25.453 11.3748C25.408 11.4993 25.3208 11.613 25.1914 11.7158C25.062 11.8187 24.9017 11.8701 24.7105 11.8701H22.9386L27.7395 0.129905H30.0514L34.844 11.8701Z"
            fill="black" />
        <path
            d="M54.8298 0.129905V11.8701H53.6654C53.4854 11.8701 53.3335 11.843 53.2098 11.7889C53.0916 11.7294 52.9763 11.6319 52.8638 11.4966L46.4935 3.66982C46.5272 4.02706 46.5441 4.35724 46.5441 4.66035V11.8701H44.5444V0.129905H45.7341C45.8297 0.129905 45.9113 0.135317 45.9788 0.146143C46.0519 0.151555 46.1138 0.167794 46.1644 0.194857C46.2206 0.216509 46.2741 0.251691 46.3247 0.300405C46.3753 0.343707 46.4316 0.403247 46.4935 0.479025L52.8891 8.33829C52.8723 8.14885 52.8582 7.96211 52.8469 7.77808C52.8357 7.59405 52.8301 7.42354 52.8301 7.26658V0.129905H54.8298Z"
            fill="black" />
        <path d="M68.2625 11.8701H65.9844V0.129905H68.2625V11.8701Z" fill="black" />
        <path d="M81.7099 1.86739V5.34235H86.283V7.08796H81.7099V11.8701H79.4317V0.129905H87.1268V1.86739H81.7099Z"
            fill="black" />
        <path
            d="M99.7056 1.86739V5.12314H103.975V6.80379H99.7056V10.1245H105.123V11.8701H97.4275V0.129905H105.123V1.86739H99.7056Z"
            fill="black" />
        <path
            d="M122.068 2.26522C122.001 2.37889 121.928 2.46279 121.849 2.51691C121.776 2.56563 121.683 2.58999 121.571 2.58999C121.452 2.58999 121.323 2.54939 121.182 2.4682C121.047 2.3816 120.884 2.28687 120.693 2.18403C120.502 2.08119 120.277 1.98917 120.018 1.90798C119.765 1.82138 119.464 1.77808 119.115 1.77808C118.8 1.77808 118.525 1.81597 118.288 1.89174C118.052 1.96211 117.852 2.06225 117.689 2.19215C117.532 2.32206 117.414 2.47903 117.335 2.66306C117.256 2.84168 117.217 3.03924 117.217 3.25575C117.217 3.5318 117.296 3.76184 117.453 3.94587C117.616 4.1299 117.83 4.28687 118.094 4.41678C118.359 4.54668 118.66 4.66306 118.997 4.7659C119.335 4.86874 119.681 4.9797 120.035 5.09878C120.389 5.21245 120.735 5.34777 121.073 5.50474C121.41 5.65629 121.711 5.85115 121.976 6.08931C122.24 6.32206 122.451 6.60893 122.608 6.94993C122.772 7.29093 122.853 7.70501 122.853 8.19215C122.853 8.7226 122.757 9.22057 122.566 9.68606C122.381 10.1461 122.105 10.5494 121.739 10.8958C121.379 11.2368 120.938 11.5074 120.415 11.7077C119.892 11.9026 119.292 12 118.617 12C118.229 12 117.847 11.9621 117.47 11.8863C117.093 11.816 116.73 11.7131 116.382 11.5778C116.038 11.4425 115.715 11.2801 115.411 11.0907C115.107 10.9012 114.837 10.6901 114.601 10.4574L115.268 9.41001C115.324 9.33424 115.397 9.27199 115.487 9.22328C115.577 9.16915 115.673 9.14208 115.774 9.14208C115.915 9.14208 116.067 9.19892 116.23 9.31258C116.393 9.42084 116.587 9.54263 116.812 9.67794C117.037 9.81326 117.298 9.93775 117.597 10.0514C117.9 10.1597 118.263 10.2138 118.685 10.2138C119.332 10.2138 119.832 10.0677 120.187 9.77537C120.541 9.47767 120.718 9.05277 120.718 8.50068C120.718 8.19215 120.637 7.94046 120.474 7.7456C120.316 7.55074 120.105 7.38836 119.841 7.25846C119.577 7.12314 119.276 7.00947 118.938 6.91746C118.601 6.82544 118.257 6.7253 117.909 6.61705C117.56 6.5088 117.217 6.37889 116.879 6.22733C116.542 6.07578 116.241 5.87821 115.977 5.63464C115.712 5.39107 115.498 5.08796 115.335 4.7253C115.178 4.35724 115.099 3.90528 115.099 3.36942C115.099 2.94181 115.186 2.52503 115.361 2.11908C115.541 1.71313 115.799 1.35318 116.137 1.03924C116.474 0.725304 116.891 0.473613 117.386 0.284168C117.881 0.0947225 118.449 0 119.09 0C119.81 0 120.474 0.108254 121.081 0.324763C121.689 0.541271 122.206 0.844384 122.634 1.2341L122.068 2.26522Z"
            fill="black" />
        <path d="M141.793 1.92422H138.114V11.8701H135.844V1.92422H132.165V0.129905H141.793V1.92422Z" fill="black" />
    </symbol>
    <symbol id="search" viewBox="0 0 18 16">
        <path fill-rule="evenodd" clip-rule="evenodd"
            d="M13.8942 11.0715L17.6712 14.6313C17.8399 14.8079 17.8316 15.0783 17.6524 15.2454L16.9914 15.8684C16.9027 15.9526 16.7821 16 16.6562 16C16.5303 16 16.4096 15.9526 16.3209 15.8684L12.5439 12.3085C12.4394 12.21 12.3446 12.1028 12.2606 11.9881L11.5524 11.0982C10.3806 11.9801 8.92549 12.4602 7.42595 12.4598C4.33594 12.4699 1.65084 10.461 0.960303 7.62231C0.269767 4.78365 1.75809 1.87288 4.54414 0.613257C7.3302 -0.646363 10.6704 0.0813446 12.5873 2.36555C14.5042 4.64977 14.4862 7.88086 12.5439 10.1459L13.4881 10.76C13.6356 10.849 13.7718 10.9535 13.8942 11.0715ZM2.70508 6.23017C2.70508 8.68773 4.81889 10.68 7.42641 10.68C8.67859 10.68 9.87948 10.2112 10.7649 9.37666C11.6503 8.54216 12.1477 7.41034 12.1477 6.23017C12.1477 3.77262 10.0339 1.78037 7.42641 1.78037C4.81889 1.78037 2.70508 3.77262 2.70508 6.23017Z"
            fill="black" />
    </symbol>
    <symbol id="arrow" viewBox="0 0 18 16">
        <path d=" M23.5303 6.53033C23.8232 6.23744 23.8232 5.76257 23.5303 5.46967L18.7574 0.696701C18.4645 0.403807
        17.9896 0.403807 17.6967 0.696701C17.4038 0.989594 17.4038 1.46447 17.6967 1.75736L21.9393 6L17.6967
        10.2426C17.4038 10.5355 17.4038 11.0104 17.6967 11.3033C17.9896 11.5962 18.4645 11.5962 18.7574 11.3033L23.5303
        6.53033ZM-6.55671e-08 6.75L23 6.75L23 5.25L6.55671e-08 5.25L-6.55671e-08 6.75Z" />
    </symbol>
    <symbol id="instagram">
        <rect x="0.5" y="0.5" width="49" height="49" />
        <path
            d="M25.0029 18.8467C21.5969 18.8467 18.8496 21.594 18.8496 25C18.8496 28.406 21.5969 31.1533 25.0029 31.1533C28.4089 31.1533 31.1562 28.406 31.1562 25C31.1562 21.594 28.4089 18.8467 25.0029 18.8467ZM25.0029 29.0004C22.8019 29.0004 21.0025 27.2064 21.0025 25C21.0025 22.7936 22.7965 20.9996 25.0029 20.9996C27.2093 20.9996 29.0034 22.7936 29.0034 25C29.0034 27.2064 27.204 29.0004 25.0029 29.0004ZM32.8431 18.595C32.8431 19.3929 32.2005 20.0302 31.4079 20.0302C30.61 20.0302 29.9727 19.3876 29.9727 18.595C29.9727 17.8024 30.6153 17.1598 31.4079 17.1598C32.2005 17.1598 32.8431 17.8024 32.8431 18.595ZM36.9186 20.0517C36.8275 18.1291 36.3884 16.4261 34.9799 15.023C33.5768 13.6199 31.8738 13.1807 29.9513 13.0843C27.9698 12.9719 22.0307 12.9719 20.0492 13.0843C18.132 13.1754 16.429 13.6145 15.0205 15.0176C13.6121 16.4207 13.1783 18.1237 13.0819 20.0463C12.9694 22.0278 12.9694 27.9669 13.0819 29.9483C13.1729 31.8709 13.6121 33.5739 15.0205 34.977C16.429 36.3801 18.1266 36.8193 20.0492 36.9157C22.0307 37.0281 27.9698 37.0281 29.9513 36.9157C31.8738 36.8246 33.5768 36.3855 34.9799 34.977C36.383 33.5739 36.8222 31.8709 36.9186 29.9483C37.031 27.9669 37.031 22.0331 36.9186 20.0517ZM34.3587 32.0744C33.941 33.1241 33.1323 33.9327 32.0773 34.3558C30.4975 34.9824 26.7488 34.8378 25.0029 34.8378C23.2571 34.8378 19.503 34.977 17.9285 34.3558C16.8788 33.9381 16.0702 33.1294 15.6471 32.0744C15.0205 30.4946 15.1651 26.7458 15.1651 25C15.1651 23.2542 15.0259 19.5001 15.6471 17.9256C16.0648 16.8759 16.8735 16.0673 17.9285 15.6442C19.5083 15.0176 23.2571 15.1622 25.0029 15.1622C26.7488 15.1622 30.5029 15.023 32.0773 15.6442C33.127 16.0619 33.9356 16.8706 34.3587 17.9256C34.9853 19.5054 34.8407 23.2542 34.8407 25C34.8407 26.7458 34.9853 30.4999 34.3587 32.0744Z" />
    </symbol>
    <symbol id="facebook">
        <rect x="0.5" y="0.5" width="49" height="49" />
        <path
            d="M30.5845 26.5L31.251 22.1566H27.0834V19.338C27.0834 18.1497 27.6656 16.9914 29.5321 16.9914H31.4268V13.2934C31.4268 13.2934 29.7074 13 28.0635 13C24.6313 13 22.3879 15.0803 22.3879 18.8463V22.1566H18.5728V26.5H22.3879V37H27.0834V26.5H30.5845Z" />

    </symbol>
    <symbol id="twitter" viewBox="">
        <rect class="svg-hover" x="0.5" y="0.5" width="49" height="49" />
        <rect x="0.5" y="0.5" width="49" height="49" />
        <path
            d="M36.7376 18.9812C36.7564 19.2437 36.7564 19.5063 36.7564 19.7687C36.7564 27.775 30.6626 37 19.5251 37C16.0938 37 12.9064 36.0062 10.2251 34.2813C10.7126 34.3375 11.1813 34.3563 11.6876 34.3563C14.5188 34.3563 17.1251 33.4 19.2063 31.7688C16.5438 31.7125 14.3126 29.9688 13.5438 27.5687C13.9189 27.625 14.2938 27.6625 14.6876 27.6625C15.2313 27.6625 15.7751 27.5874 16.2814 27.4563C13.5064 26.8937 11.425 24.4562 11.425 21.5125V21.4375C12.2313 21.8875 13.1688 22.1688 14.1625 22.2062C12.5313 21.1187 11.4626 19.2625 11.4626 17.1625C11.4626 16.0375 11.7625 15.0062 12.2875 14.1062C15.2688 17.7812 19.7501 20.1812 24.775 20.4437C24.6813 19.9937 24.625 19.525 24.625 19.0563C24.625 15.7187 27.325 13 30.6813 13C32.425 13 34 13.7312 35.1063 14.9125C36.475 14.65 37.7875 14.1437 38.95 13.45C38.5 14.8563 37.5438 16.0375 36.2875 16.7875C37.5063 16.6563 38.6876 16.3187 39.775 15.85C38.9502 17.05 37.9189 18.1187 36.7376 18.9812Z" />
    </symbol>
    <symbol id="linkedin" viewBox="">
        <rect x="0.5" y="0.5" width="49.0007" height="49" />
        <path
            d="M18.3723 37H13.3964V20.9764H18.3723V37ZM15.8817 18.7907C14.2906 18.7907 13 17.4728 13 15.8817C13 15.1174 13.3036 14.3844 13.844 13.844C14.3844 13.3036 15.1174 13 15.8817 13C16.6459 13 17.3789 13.3036 17.9193 13.844C18.4597 14.3844 18.7633 15.1174 18.7633 15.8817C18.7633 17.4728 17.4722 18.7907 15.8817 18.7907ZM36.9952 37H32.0301V29.1998C32.0301 27.3409 31.9926 24.9569 29.443 24.9569C26.856 24.9569 26.4596 26.9766 26.4596 29.0659V37H21.4891V20.9764H26.2614V23.1622H26.331C26.9953 21.9032 28.618 20.5746 31.039 20.5746C36.0748 20.5746 37.0005 23.8908 37.0005 28.198V37H36.9952Z" />
    </symbol>
</svg>